<svg height="200px" width="200px" version="1.1" id="_x32_" xmlns="http://www.w3.org/2000/svg" xmlns:xlink="http://www.w3.org/1999/xlink" viewBox="0 0 512 512" xml:space="preserve" fill="#000000" stroke="#000000"><g id="SVGRepo_bgCarrier" stroke-width="0"></g><g id="SVGRepo_tracerCarrier" stroke-linecap="round" stroke-linejoin="round"></g><g id="SVGRepo_iconCarrier"> <style type="text/css"> .st0{fill:#ffffff;} </style> <g> <path class="st0" d="M379.446,271.861c-17.535-3.583-34.668,7.734-38.258,25.268c-1.208,5.918-3.418,11.442-6.464,16.454 c-4.569,7.52-11.032,13.849-18.664,18.229c-7.654,4.388-16.359,6.874-25.916,6.882c-6.314,0-12.232-1.097-17.748-3.086 c-8.263-2.991-15.609-8.065-21.37-14.591c-5.746-6.534-10.015-13.929-13.194-22.278c-4.048-10.638-3.914-29.104-0.505-40.01 c2.532-8.112,10.062-20.565,20.328-27.494c5.137-3.472,10.78-6.202,16.793-8.081c6.021-1.862,12.406-2.888,19.129-2.888 c9.644,0.008,18.616,2.084,26.752,5.816c8.129,3.725,15.397,9.131,21.3,15.776c11.158,12.532,30.367,13.652,42.906,2.502 c12.54-11.151,13.668-30.359,2.509-42.907c-11.434-12.855-25.49-23.335-41.367-30.619c-15.87-7.292-33.602-11.356-52.1-11.348 c-7.402,0-14.686,0.671-21.78,1.918c8.184-15.064,17.654-30.469,28.228-45.59c15.08-21.575,32.331-42.582,50.884-61.278 c11.822-11.908,11.75-31.163-0.174-42.985C338.82-0.271,319.581-0.192,307.76,11.732v-0.008 c-28.37,28.615-53.307,60.985-73.675,93.673c-6.471,10.393-12.477,20.817-17.969,31.186c1.712-9.138,3.724-17.96,6.021-26.42 c7.182-26.389,16.864-49.424,26.839-68.814c7.165-13.929,1.689-31.03-12.24-38.195c-13.936-7.174-31.037-1.696-38.202,12.232 c-11.514,22.365-22.767,49.101-31.14,79.878c-4.206,15.467-7.686,31.968-10.109,49.416V65.718c0-13.984-11.34-25.316-25.332-25.316 c-13.983,0-25.324,11.332-25.324,25.316v169.171V512h158.225c0,0,0-31.061,0-40.515c0-20.257,10.804-35.134,25.664-43.23 c13.328-7.276,47.302-25.419,77.724-54.626c0.212-0.189,0.402-0.386,0.608-0.576c0.126-0.118,0.26-0.237,0.378-0.363 c3.284-3.014,6.416-6.195,9.336-9.556c12.84-14.82,22.049-32.971,26.145-53.008C408.298,292.584,396.989,275.459,379.446,271.861z"></path> </g> </g></svg>